# 3ds Max Wavefront OBJ Exporter v0.99 - (c)2007 guruware
# File Created: 12.11.2025 22:18:47

mtllib n_cube.mtl

#
# object Box001
#

v  -1.0000 -1.0000 1.0000
v  -1.0000 -1.0000 -1.0000
v  1.0000 -1.0000 1.0000
v  -1.0000 1.0000 1.0000
v  1.0000 1.0000 1.0000
v  -1.0000 1.0000 -1.0000
v  1.0000 1.0000 -1.0000
v  1.0000 -1.0000 -1.0000
# 8 vertices

vn -0.5774 -0.5774 0.5774
vn -0.5774 -0.5774 -0.5774
vn 0.5774 -0.5774 0.5774
vn -0.5774 0.5774 0.5774
vn 0.5774 0.5774 0.5774
vn -0.5774 0.5774 -0.5774
vn 0.5774 0.5774 -0.5774
vn 0.5774 -0.5774 -0.5774
# 8 vertex normals

vt 1.0000 0.0000 0.0000
vt 1.0000 1.0000 0.0000
vt 0.0000 0.0000 0.0000
vt 0.0000 1.0000 0.0000
# 4 texture coords

o Box001
g Box001
usemtl wire_152173046
s 2
f 1/1/1 2/2/2 3/3/3 
s 4
f 4/3/4 5/1/5 6/4/6 
s 8
f 1/3/1 5/2/5 4/4/4 
s 16
f 3/3/3 7/2/7 5/4/5 
s 32
f 8/3/8 6/2/6 7/4/7 
s 64
f 2/3/2 4/2/4 6/4/6 
s 8
f 1/3/1 3/1/3 5/2/5 
s 16
f 3/3/3 8/1/8 7/2/7 
s 32
f 8/3/8 2/1/2 6/2/6 
s 64
f 2/3/2 1/1/1 4/2/4 
s 4
f 5/1/5 7/2/7 6/4/6 
s 2
f 2/2/2 8/4/8 3/3/3 
# 0 polygons - 12 triangles

