# 3ds Max Wavefront OBJ Exporter v0.99 - (c)2007 guruware
# File Created: 13.11.2025 01:35:53

mtllib n_ring.mtl

#
# object Tube001
#

v  -0.0000 0.0000 -1.0100
v  0.3121 0.0100 -0.9606
v  0.3121 0.0000 -0.9606
v  -0.0000 0.0100 -1.0100
v  0.3090 0.0100 -0.9511
v  -0.0000 0.0100 -1.0000
v  0.3090 0.0000 -0.9511
v  -0.0000 0.0000 -1.0000
v  0.5937 0.0100 -0.8171
v  0.5937 0.0000 -0.8171
v  0.5878 0.0100 -0.8090
v  0.5878 0.0000 -0.8090
v  0.8171 0.0100 -0.5937
v  0.8171 0.0000 -0.5937
v  0.8090 0.0100 -0.5878
v  0.8090 0.0000 -0.5878
v  0.9606 0.0100 -0.3121
v  0.9606 0.0000 -0.3121
v  0.9511 0.0100 -0.3090
v  0.9511 0.0000 -0.3090
v  1.0100 0.0100 -0.0000
v  1.0100 0.0000 -0.0000
v  1.0000 0.0100 -0.0000
v  1.0000 0.0000 -0.0000
v  0.9606 0.0100 0.3121
v  0.9606 0.0000 0.3121
v  0.9511 0.0100 0.3090
v  0.9511 0.0000 0.3090
v  0.8171 0.0100 0.5937
v  0.8171 0.0000 0.5937
v  0.8090 0.0100 0.5878
v  0.8090 0.0000 0.5878
v  0.5937 0.0100 0.8171
v  0.5937 0.0000 0.8171
v  0.5878 0.0100 0.8090
v  0.5878 0.0000 0.8090
v  0.3121 0.0100 0.9606
v  0.3121 0.0000 0.9606
v  0.3090 0.0100 0.9511
v  0.3090 0.0000 0.9511
v  -0.0000 0.0100 1.0100
v  -0.0000 0.0000 1.0100
v  -0.0000 0.0100 1.0000
v  -0.0000 0.0000 1.0000
v  -0.3121 0.0100 0.9606
v  -0.3121 0.0000 0.9606
v  -0.3090 0.0100 0.9511
v  -0.3090 0.0000 0.9511
v  -0.5937 0.0100 0.8171
v  -0.5937 0.0000 0.8171
v  -0.5878 0.0100 0.8090
v  -0.5878 0.0000 0.8090
v  -0.8171 0.0100 0.5937
v  -0.8171 0.0000 0.5937
v  -0.8090 0.0100 0.5878
v  -0.8090 0.0000 0.5878
v  -0.9606 0.0100 0.3121
v  -0.9606 0.0000 0.3121
v  -0.9511 0.0100 0.3090
v  -0.9511 0.0000 0.3090
v  -1.0100 0.0100 -0.0000
v  -1.0100 0.0000 -0.0000
v  -1.0000 0.0100 -0.0000
v  -1.0000 0.0000 -0.0000
v  -0.9606 0.0100 -0.3121
v  -0.9606 0.0000 -0.3121
v  -0.9511 0.0100 -0.3090
v  -0.9511 0.0000 -0.3090
v  -0.8171 0.0100 -0.5937
v  -0.8171 0.0000 -0.5937
v  -0.8090 0.0100 -0.5878
v  -0.8090 0.0000 -0.5878
v  -0.5937 0.0100 -0.8171
v  -0.5937 0.0000 -0.8171
v  -0.5878 0.0100 -0.8090
v  -0.5878 0.0000 -0.8090
v  -0.3121 0.0100 -0.9606
v  -0.3121 0.0000 -0.9606
v  -0.3090 0.0100 -0.9511
v  -0.3090 0.0000 -0.9511
# 80 vertices

vn 0.0000 0.0000 -1.0000
vn 0.3090 0.0000 -0.9511
vn 0.0000 1.0000 -0.0000
vn 0.0000 0.0000 1.0000
vn -0.3090 0.0000 0.9511
vn -0.0000 0.0000 1.0000
vn 0.0000 -1.0000 -0.0000
vn 0.5878 0.0000 -0.8090
vn -0.5878 0.0000 0.8090
vn 0.8090 0.0000 -0.5878
vn -0.8090 0.0000 0.5878
vn 0.9511 0.0000 -0.3090
vn -0.9511 0.0000 0.3090
vn 1.0000 0.0000 0.0000
vn -1.0000 0.0000 -0.0000
vn -1.0000 0.0000 0.0000
vn 0.9511 0.0000 0.3090
vn -0.9511 0.0000 -0.3090
vn 0.8090 0.0000 0.5878
vn -0.8090 0.0000 -0.5878
vn 0.5878 0.0000 0.8090
vn -0.5878 0.0000 -0.8090
vn 0.3090 0.0000 0.9511
vn -0.3090 0.0000 -0.9511
vn -0.0000 0.0000 -1.0000
# 25 vertex normals

vt 0.0000 0.0000 0.0000
vt 0.2500 0.0500 0.0000
vt 0.0000 0.0500 0.0000
vt 0.2500 0.0000 0.0000
vt 0.5000 0.0500 0.0000
vt 0.5000 0.0000 0.0000
vt 0.7500 0.0500 0.0000
vt 0.7500 0.0000 0.0000
vt 1.0000 0.0500 0.0000
vt 1.0000 0.0000 0.0000
vt 0.2500 0.1000 0.0000
vt 0.0000 0.1000 0.0000
vt 0.5000 0.1000 0.0000
vt 0.7500 0.1000 0.0000
vt 1.0000 0.1000 0.0000
vt 0.2500 0.1500 0.0000
vt 0.0000 0.1500 0.0000
vt 0.5000 0.1500 0.0000
vt 0.7500 0.1500 0.0000
vt 1.0000 0.1500 0.0000
vt 0.2500 0.2000 0.0000
vt 0.0000 0.2000 0.0000
vt 0.5000 0.2000 0.0000
vt 0.7500 0.2000 0.0000
vt 1.0000 0.2000 0.0000
vt 0.2500 0.2500 0.0000
vt 0.0000 0.2500 0.0000
vt 0.5000 0.2500 0.0000
vt 0.7500 0.2500 0.0000
vt 1.0000 0.2500 0.0000
vt 0.2500 0.3000 0.0000
vt 0.0000 0.3000 0.0000
vt 0.5000 0.3000 0.0000
vt 0.7500 0.3000 0.0000
vt 1.0000 0.3000 0.0000
vt 0.2500 0.3500 0.0000
vt 0.0000 0.3500 0.0000
vt 0.5000 0.3500 0.0000
vt 0.7500 0.3500 0.0000
vt 1.0000 0.3500 0.0000
vt 0.2500 0.4000 0.0000
vt 0.0000 0.4000 0.0000
vt 0.5000 0.4000 0.0000
vt 0.7500 0.4000 0.0000
vt 1.0000 0.4000 0.0000
vt 0.2500 0.4500 0.0000
vt 0.0000 0.4500 0.0000
vt 0.5000 0.4500 0.0000
vt 0.7500 0.4500 0.0000
vt 1.0000 0.4500 0.0000
vt 0.2500 0.5000 0.0000
vt 0.0000 0.5000 0.0000
vt 0.5000 0.5000 0.0000
vt 0.7500 0.5000 0.0000
vt 1.0000 0.5000 0.0000
vt 0.2500 0.5500 0.0000
vt 0.0000 0.5500 0.0000
vt 0.5000 0.5500 0.0000
vt 0.7500 0.5500 0.0000
vt 1.0000 0.5500 0.0000
vt 0.2500 0.6000 0.0000
vt 0.0000 0.6000 0.0000
vt 0.5000 0.6000 0.0000
vt 0.7500 0.6000 0.0000
vt 1.0000 0.6000 0.0000
vt 0.2500 0.6500 0.0000
vt 0.0000 0.6500 0.0000
vt 0.5000 0.6500 0.0000
vt 0.7500 0.6500 0.0000
vt 1.0000 0.6500 0.0000
vt 0.2500 0.7000 0.0000
vt 0.0000 0.7000 0.0000
vt 0.5000 0.7000 0.0000
vt 0.7500 0.7000 0.0000
vt 1.0000 0.7000 0.0000
vt 0.2500 0.7500 0.0000
vt 0.0000 0.7500 0.0000
vt 0.5000 0.7500 0.0000
vt 0.7500 0.7500 0.0000
vt 1.0000 0.7500 0.0000
vt 0.2500 0.8000 0.0000
vt 0.0000 0.8000 0.0000
vt 0.5000 0.8000 0.0000
vt 0.7500 0.8000 0.0000
vt 1.0000 0.8000 0.0000
vt 0.2500 0.8500 0.0000
vt 0.0000 0.8500 0.0000
vt 0.5000 0.8500 0.0000
vt 0.7500 0.8500 0.0000
vt 1.0000 0.8500 0.0000
vt 0.2500 0.9000 0.0000
vt 0.0000 0.9000 0.0000
vt 0.5000 0.9000 0.0000
vt 0.7500 0.9000 0.0000
vt 1.0000 0.9000 0.0000
vt 0.2500 0.9500 0.0000
vt 0.0000 0.9500 0.0000
vt 0.5000 0.9500 0.0000
vt 0.7500 0.9500 0.0000
vt 1.0000 0.9500 0.0000
vt 0.2500 1.0000 0.0000
vt 0.0000 1.0000 0.0000
vt 0.5000 1.0000 0.0000
vt 0.7500 1.0000 0.0000
vt 1.0000 1.0000 0.0000
# 105 texture coords

o Tube001
g Tube001
usemtl wire_203160209
s 2
f 1/1/1 2/2/2 3/3/2 
f 1/1/1 4/4/1 2/2/2 
s 4
f 4/4/3 5/5/3 2/2/3 
f 4/4/3 6/6/3 5/5/3 
s 2
f 6/6/4 7/7/5 5/5/5 
f 6/6/4 8/8/6 7/7/5 
s 4
f 8/8/7 3/9/7 7/7/7 
f 8/8/7 1/10/7 3/9/7 
s 2
f 3/3/2 9/11/8 10/12/8 
f 3/3/2 2/2/2 9/11/8 
s 4
f 2/2/3 11/13/3 9/11/3 
f 2/2/3 5/5/3 11/13/3 
s 2
f 5/5/5 12/14/9 11/13/9 
f 5/5/5 7/7/5 12/14/9 
s 4
f 7/7/7 10/15/7 12/14/7 
f 7/7/7 3/9/7 10/15/7 
s 2
f 10/12/8 13/16/10 14/17/10 
f 10/12/8 9/11/8 13/16/10 
s 4
f 9/11/3 15/18/3 13/16/3 
f 9/11/3 11/13/3 15/18/3 
s 2
f 11/13/9 16/19/11 15/18/11 
f 11/13/9 12/14/9 16/19/11 
s 4
f 12/14/7 14/20/7 16/19/7 
f 12/14/7 10/15/7 14/20/7 
s 2
f 14/17/10 17/21/12 18/22/12 
f 14/17/10 13/16/10 17/21/12 
s 4
f 13/16/3 19/23/3 17/21/3 
f 13/16/3 15/18/3 19/23/3 
s 2
f 15/18/11 20/24/13 19/23/13 
f 15/18/11 16/19/11 20/24/13 
s 4
f 16/19/7 18/25/7 20/24/7 
f 16/19/7 14/20/7 18/25/7 
s 2
f 18/22/12 21/26/14 22/27/14 
f 18/22/12 17/21/12 21/26/14 
s 4
f 17/21/3 23/28/3 21/26/3 
f 17/21/3 19/23/3 23/28/3 
s 2
f 19/23/13 24/29/15 23/28/16 
f 19/23/13 20/24/13 24/29/15 
s 4
f 20/24/7 22/30/7 24/29/7 
f 20/24/7 18/25/7 22/30/7 
s 2
f 22/27/14 25/31/17 26/32/17 
f 22/27/14 21/26/14 25/31/17 
s 4
f 21/26/3 27/33/3 25/31/3 
f 21/26/3 23/28/3 27/33/3 
s 2
f 23/28/16 28/34/18 27/33/18 
f 23/28/16 24/29/15 28/34/18 
s 4
f 24/29/7 26/35/7 28/34/7 
f 24/29/7 22/30/7 26/35/7 
s 2
f 26/32/17 29/36/19 30/37/19 
f 26/32/17 25/31/17 29/36/19 
s 4
f 25/31/3 31/38/3 29/36/3 
f 25/31/3 27/33/3 31/38/3 
s 2
f 27/33/18 32/39/20 31/38/20 
f 27/33/18 28/34/18 32/39/20 
s 4
f 28/34/7 30/40/7 32/39/7 
f 28/34/7 26/35/7 30/40/7 
s 2
f 30/37/19 33/41/21 34/42/21 
f 30/37/19 29/36/19 33/41/21 
s 4
f 29/36/3 35/43/3 33/41/3 
f 29/36/3 31/38/3 35/43/3 
s 2
f 31/38/20 36/44/22 35/43/22 
f 31/38/20 32/39/20 36/44/22 
s 4
f 32/39/7 34/45/7 36/44/7 
f 32/39/7 30/40/7 34/45/7 
s 2
f 34/42/21 37/46/23 38/47/23 
f 34/42/21 33/41/21 37/46/23 
s 4
f 33/41/3 39/48/3 37/46/3 
f 33/41/3 35/43/3 39/48/3 
s 2
f 35/43/22 40/49/24 39/48/24 
f 35/43/22 36/44/22 40/49/24 
s 4
f 36/44/7 38/50/7 40/49/7 
f 36/44/7 34/45/7 38/50/7 
s 2
f 38/47/23 41/51/6 42/52/6 
f 38/47/23 37/46/23 41/51/6 
s 4
f 37/46/3 43/53/3 41/51/3 
f 37/46/3 39/48/3 43/53/3 
s 2
f 39/48/24 44/54/1 43/53/25 
f 39/48/24 40/49/24 44/54/1 
s 4
f 40/49/7 42/55/7 44/54/7 
f 40/49/7 38/50/7 42/55/7 
s 2
f 42/52/6 45/56/5 46/57/5 
f 42/52/6 41/51/6 45/56/5 
s 4
f 41/51/3 47/58/3 45/56/3 
f 41/51/3 43/53/3 47/58/3 
s 2
f 43/53/25 48/59/2 47/58/2 
f 43/53/25 44/54/1 48/59/2 
s 4
f 44/54/7 46/60/7 48/59/7 
f 44/54/7 42/55/7 46/60/7 
s 2
f 46/57/5 49/61/9 50/62/9 
f 46/57/5 45/56/5 49/61/9 
s 4
f 45/56/3 51/63/3 49/61/3 
f 45/56/3 47/58/3 51/63/3 
s 2
f 47/58/2 52/64/8 51/63/8 
f 47/58/2 48/59/2 52/64/8 
s 4
f 48/59/7 50/65/7 52/64/7 
f 48/59/7 46/60/7 50/65/7 
s 2
f 50/62/9 53/66/11 54/67/11 
f 50/62/9 49/61/9 53/66/11 
s 4
f 49/61/3 55/68/3 53/66/3 
f 49/61/3 51/63/3 55/68/3 
s 2
f 51/63/8 56/69/10 55/68/10 
f 51/63/8 52/64/8 56/69/10 
s 4
f 52/64/7 54/70/7 56/69/7 
f 52/64/7 50/65/7 54/70/7 
s 2
f 54/67/11 57/71/13 58/72/13 
f 54/67/11 53/66/11 57/71/13 
s 4
f 53/66/3 59/73/3 57/71/3 
f 53/66/3 55/68/3 59/73/3 
s 2
f 55/68/10 60/74/12 59/73/12 
f 55/68/10 56/69/10 60/74/12 
s 4
f 56/69/7 58/75/7 60/74/7 
f 56/69/7 54/70/7 58/75/7 
s 2
f 58/72/13 61/76/15 62/77/15 
f 58/72/13 57/71/13 61/76/15 
s 4
f 57/71/3 63/78/3 61/76/3 
f 57/71/3 59/73/3 63/78/3 
s 2
f 59/73/12 64/79/14 63/78/14 
f 59/73/12 60/74/12 64/79/14 
s 4
f 60/74/7 62/80/7 64/79/7 
f 60/74/7 58/75/7 62/80/7 
s 2
f 62/77/15 65/81/18 66/82/18 
f 62/77/15 61/76/15 65/81/18 
s 4
f 61/76/3 67/83/3 65/81/3 
f 61/76/3 63/78/3 67/83/3 
s 2
f 63/78/14 68/84/17 67/83/17 
f 63/78/14 64/79/14 68/84/17 
s 4
f 64/79/7 66/85/7 68/84/7 
f 64/79/7 62/80/7 66/85/7 
s 2
f 66/82/18 69/86/20 70/87/20 
f 66/82/18 65/81/18 69/86/20 
s 4
f 65/81/3 71/88/3 69/86/3 
f 65/81/3 67/83/3 71/88/3 
s 2
f 67/83/17 72/89/19 71/88/19 
f 67/83/17 68/84/17 72/89/19 
s 4
f 68/84/7 70/90/7 72/89/7 
f 68/84/7 66/85/7 70/90/7 
s 2
f 70/87/20 73/91/22 74/92/22 
f 70/87/20 69/86/20 73/91/22 
s 4
f 69/86/3 75/93/3 73/91/3 
f 69/86/3 71/88/3 75/93/3 
s 2
f 71/88/19 76/94/21 75/93/21 
f 71/88/19 72/89/19 76/94/21 
s 4
f 72/89/7 74/95/7 76/94/7 
f 72/89/7 70/90/7 74/95/7 
s 2
f 74/92/22 77/96/24 78/97/24 
f 74/92/22 73/91/22 77/96/24 
s 4
f 73/91/3 79/98/3 77/96/3 
f 73/91/3 75/93/3 79/98/3 
s 2
f 75/93/21 80/99/23 79/98/23 
f 75/93/21 76/94/21 80/99/23 
s 4
f 76/94/7 78/100/7 80/99/7 
f 76/94/7 74/95/7 78/100/7 
s 2
f 78/97/24 4/101/1 1/102/1 
f 78/97/24 77/96/24 4/101/1 
s 4
f 77/96/3 6/103/3 4/101/3 
f 77/96/3 79/98/3 6/103/3 
s 2
f 79/98/23 8/104/6 6/103/4 
f 79/98/23 80/99/23 8/104/6 
s 4
f 80/99/7 1/105/7 8/104/7 
f 80/99/7 78/100/7 1/105/7 
# 160 faces

